<svg width="48" height="50" viewBox="0 0 48 50" fill="none" xmlns="http://www.w3.org/2000/svg">
<path d="M46.7609 22.0056C45.8972 21.1419 44.4966 21.1419 43.6335 22.0056L30.9609 34.6787L23.3028 42.3368H23.3023C18.9833 46.6557 11.9821 46.6557 7.66319 42.3368C3.34426 38.0179 3.34426 31.0167 7.66319 26.6977C7.6643 26.6966 7.66596 26.6944 7.66706 26.6933L15.3224 19.0386L21.7491 12.6118L27.9939 6.36706C30.586 3.77492 34.7866 3.77492 37.3776 6.36706C39.9692 8.95809 39.9692 13.1587 37.3776 15.7503L31.1323 21.9951L21.4654 31.6625L17.0464 36.0815C16.1827 36.9452 14.7822 36.9452 13.9185 36.0821C13.0548 35.2184 13.0548 33.8173 13.9185 32.9536L18.3375 28.5346L32.6855 14.1866C33.5492 13.3229 33.5492 11.9223 32.686 11.0587C31.8224 10.195 30.4212 10.195 29.5576 11.0587L10.7911 29.8262C8.20009 32.4172 8.19954 36.6184 10.7911 39.21C13.3821 41.801 17.5839 41.801 20.1749 39.21L40.5061 18.8788H40.5056C44.8245 14.5598 44.8251 7.55807 40.5061 3.23969C36.1866 -1.0798 29.1854 -1.0798 24.8671 3.23913C24.8648 3.24134 24.8626 3.24356 24.8604 3.24577L4.54246 23.5621C4.53969 23.5654 4.53748 23.5676 4.53472 23.5698C-1.51157 29.6167 -1.51157 39.4195 4.53472 45.4653C10.581 51.5116 20.3833 51.5116 26.4296 45.4653L46.7609 25.1341C47.6251 24.2704 47.6251 22.8698 46.7609 22.0056Z" fill="#E6000E"/>
</svg>
