<svg width="50" height="50" viewBox="0 0 50 50" fill="none" xmlns="http://www.w3.org/2000/svg">
<path fill-rule="evenodd" clip-rule="evenodd" d="M33.3333 27.7778H36.1111C36.1111 33.9143 31.1365 38.8889 25 38.8889C18.8635 38.8889 13.8889 33.9143 13.8889 27.7778H16.6667C16.6667 32.3801 20.3976 36.1111 25 36.1111C29.6024 36.1111 33.3333 32.3801 33.3333 27.7778ZM25 50C38.8071 50 50 38.8071 50 25C50 11.1929 38.8071 0 25 0C11.1929 0 0 11.1929 0 25C0 38.8071 11.1929 50 25 50ZM16.6667 22.2222C18.2008 22.2222 19.4444 20.9786 19.4444 19.4444C19.4444 17.9103 18.2008 16.6667 16.6667 16.6667C15.1325 16.6667 13.8889 17.9103 13.8889 19.4444C13.8889 20.9786 15.1325 22.2222 16.6667 22.2222ZM33.3333 22.2222C34.8675 22.2222 36.1111 20.9786 36.1111 19.4444C36.1111 17.9103 34.8675 16.6667 33.3333 16.6667C31.7992 16.6667 30.5556 17.9103 30.5556 19.4444C30.5556 20.9786 31.7992 22.2222 33.3333 22.2222Z" fill="#E6000E"/>
</svg>
